HIERARCHY
ROOT joint_0
{
	OFFSET 0.000000 0.000000 0.000000
	CHANNELS 6 Xposition Yposition Zposition Zrotation Yrotation Xrotation 
	JOINT joint_1
	{
		OFFSET 6.590088 -1.122192 114.019043
		CHANNELS 3 Zrotation Yrotation Xrotation
		JOINT joint_2
		{
			OFFSET -5.956055 -0.820435 104.151001
			CHANNELS 3 Zrotation Yrotation Xrotation
			JOINT joint_3
			{
				OFFSET -7.343506 -1.103027 103.942993
				CHANNELS 3 Zrotation Yrotation Xrotation
				JOINT joint_4
				{
					OFFSET 3.109131 -2.857056 147.715942
					CHANNELS 3 Zrotation Yrotation Xrotation
					JOINT joint_5
					{
						OFFSET 28.592285 -2.852295 87.703979
						CHANNELS 3 Zrotation Yrotation Xrotation
						End Site
						{
							OFFSET 0.000000 0.000000 0.000000
						}
					}
				}
				JOINT joint_6
				{
					OFFSET -0.332520 -33.687378 82.401978
					CHANNELS 3 Zrotation Yrotation Xrotation
					JOINT joint_7
					{
						OFFSET -7.397461 -168.719177 -22.750977
						CHANNELS 3 Zrotation Yrotation Xrotation
						JOINT joint_8
						{
							OFFSET 17.065918 -24.903137 -272.721069
							CHANNELS 3 Zrotation Yrotation Xrotation
							JOINT joint_9
							{
								OFFSET 33.311279 -37.031616 -278.192993
								CHANNELS 3 Zrotation Yrotation Xrotation
								End Site
								{
									OFFSET 0.000000 0.000000 0.000000
								}
							}
						}
					}
				}
				JOINT joint_10
				{
					OFFSET 3.914307 30.461670 83.552979
					CHANNELS 3 Zrotation Yrotation Xrotation
					JOINT joint_11
					{
						OFFSET 15.543701 166.845459 -30.963013
						CHANNELS 3 Zrotation Yrotation Xrotation
						JOINT joint_12
						{
							OFFSET 35.734863 35.017700 -269.786011
							CHANNELS 3 Zrotation Yrotation Xrotation
							JOINT joint_13
							{
								OFFSET 70.506592 13.977783 -273.320007
								CHANNELS 3 Zrotation Yrotation Xrotation
								End Site
								{
									OFFSET 0.000000 0.000000 0.000000
								}
							}
						}
					}
				}
			}
		}
	}
	JOINT joint_14
	{
		OFFSET -0.314697 -95.093994 -116.004028
		CHANNELS 3 Zrotation Yrotation Xrotation
		JOINT joint_15
		{
			OFFSET -22.490723 2.017883 -455.510986
			CHANNELS 3 Zrotation Yrotation Xrotation
			JOINT joint_16
			{
				OFFSET -46.427490 7.144104 -496.360985
				CHANNELS 3 Zrotation Yrotation Xrotation
				JOINT joint_17
				{
					OFFSET 209.055420 -37.122803 -85.191002
					CHANNELS 3 Zrotation Yrotation Xrotation
					End Site
					{
						OFFSET 0.000000 0.000000 0.000000
					}
				}
			}
		}
	}
	JOINT joint_18
	{
		OFFSET 5.652832 94.642578 -116.244019
		CHANNELS 3 Zrotation Yrotation Xrotation
		JOINT joint_19
		{
			OFFSET -12.379883 -7.332642 -455.843994
			CHANNELS 3 Zrotation Yrotation Xrotation
			JOINT joint_20
			{
				OFFSET -45.227051 -8.172241 -496.457985
				CHANNELS 3 Zrotation Yrotation Xrotation
				JOINT joint_21
				{
					OFFSET 210.522949 -11.530396 -88.809004
					CHANNELS 3 Zrotation Yrotation Xrotation
					End Site
					{
						OFFSET 0.000000 0.000000 0.000000
					}
				}
			}
		}
	}
}
MOTION
Frames: 7
Frame Time: 0.016667
-3022.950928 935.390503 1181.368042 -4.887434 1.056970 -0.871563 -0.127926 -4.131833 -0.684102 -0.070074 0.638070 0.104578 -0.101708 -0.838593 -0.117845 0.079887 0.163358 -0.228132 0.000000 0.000000 0.000000 0.747063 2.854201 2.739235 -0.068249 2.971523 2.556398 -0.157683 3.098387 2.061257 0.000000 0.000000 0.000000 1.833632 2.791028 2.910067 -0.726439 3.136882 -5.765644 0.386841 5.539824 0.236643 0.000000 0.000000 0.000000 -3.317683 0.238907 1.512446 -3.172223 0.033036 -1.581729 -3.221866 1.495140 -1.044519 0.000000 0.000000 0.000000 0.828189 1.554408 -1.798037 0.806758 -1.844640 0.855998 0.818635 0.147227 0.352442 0.000000 0.000000 0.000000 
-3023.086914 935.414856 1181.430054 -4.900328 1.035293 -0.883853 -0.137833 -4.139467 -0.683438 -0.080501 0.634524 0.103629 -0.112003 -0.836003 -0.117586 0.080868 0.189127 -0.228723 0.000000 0.000000 0.000000 0.764357 2.869096 2.723563 -0.067700 2.986493 2.588986 -0.159049 3.105481 2.057333 0.000000 0.000000 0.000000 1.848553 2.806902 2.932589 -0.729436 3.154684 -5.797847 0.385743 5.547380 0.228901 0.000000 0.000000 0.000000 -3.311372 0.224438 1.529011 -3.164250 0.083957 -1.595996 -3.216491 1.505521 -1.040479 0.000000 0.000000 0.000000 0.835213 1.568727 -1.806457 0.812873 -1.842838 0.889398 0.827178 0.162809 0.356891 0.000000 0.000000 0.000000 
-3023.217285 935.434937 1181.484009 -4.905567 1.011133 -0.895078 -0.150874 -4.145550 -0.685245 -0.093984 0.627834 0.101774 -0.125128 -0.831443 -0.115822 0.082236 0.220968 -0.229929 0.000000 0.000000 0.000000 0.791066 2.884403 2.699103 -0.066658 3.002346 2.629916 -0.160380 3.115319 2.056574 0.000000 0.000000 0.000000 1.869217 2.823866 2.960893 -0.733327 3.173291 -5.834382 0.383862 5.555148 0.218266 0.000000 0.000000 0.000000 -3.307804 0.215858 1.548341 -3.158674 0.130877 -1.616059 -3.214012 1.516014 -1.037588 0.000000 0.000000 0.000000 0.839803 1.585554 -1.817093 0.816439 -1.840208 0.925695 0.833574 0.176340 0.360323 0.000000 0.000000 0.000000 
-3023.221680 935.423157 1181.535034 -4.838860 0.961338 -0.899606 -0.177133 -4.119613 -0.702618 -0.119377 0.617712 0.104730 -0.150631 -0.819184 -0.117277 0.081177 0.233159 -0.225580 0.000000 0.000000 0.000000 0.810782 2.913920 2.656626 -0.063326 3.029959 2.683940 -0.156239 3.105742 2.080079 0.000000 0.000000 0.000000 1.889930 2.836125 3.001120 -0.738897 3.188376 -5.875537 0.380132 5.556927 0.203668 0.000000 0.000000 0.000000 -3.326792 0.256560 1.563395 -3.176084 0.166009 -1.636415 -3.233534 1.518041 -1.045127 0.000000 0.000000 0.000000 0.820791 1.641042 -1.831528 0.796980 -1.849789 0.964969 0.817731 0.194229 0.354635 0.000000 0.000000 0.000000 
-3023.184814 935.395691 1181.557983 -4.694002 0.876117 -0.898016 -0.221344 -4.058748 -0.737690 -0.161463 0.600459 0.110382 -0.192862 -0.795876 -0.119003 0.078390 0.237751 -0.216688 0.000000 0.000000 0.000000 0.826937 2.947563 2.581862 -0.056748 3.058252 2.765459 -0.148407 3.088857 2.125664 0.000000 0.000000 0.000000 1.911612 2.836791 3.056888 -0.747317 3.194111 -5.933594 0.378817 5.563523 0.198609 0.000000 0.000000 0.000000 -3.368908 0.351177 1.571868 -3.217308 0.195144 -1.653926 -3.275569 1.502337 -1.064954 0.000000 0.000000 0.000000 0.776496 1.737764 -1.849860 0.752717 -1.862962 1.007805 0.778416 0.203681 0.338608 0.000000 0.000000 0.000000 
-3023.022949 935.337280 1181.578003 -4.477107 0.765167 -0.890053 -0.279362 -3.964843 -0.787927 -0.216124 0.578971 0.119585 -0.247954 -0.764655 -0.122880 0.073715 0.221403 -0.203994 0.000000 0.000000 0.000000 0.838118 2.995373 2.488890 -0.047874 3.098513 2.860033 -0.135041 3.052221 2.195641 0.000000 0.000000 0.000000 1.935179 2.832748 3.124847 -0.757611 3.195994 -5.996581 0.375564 5.564814 0.189076 0.000000 0.000000 0.000000 -3.433284 0.494974 1.575939 -3.281274 0.212599 -1.671402 -3.339325 1.478436 -1.095044 0.000000 0.000000 0.000000 0.708521 1.873159 -1.872032 0.685362 -1.888129 1.053748 0.716826 0.217205 0.313431 0.000000 0.000000 0.000000 
-3022.363037 935.170410 1181.680054 -4.141028 0.634769 -0.868246 -0.352149 -3.810399 -0.858141 -0.283744 0.554279 0.133478 -0.316376 -0.725678 -0.128962 0.067256 0.126698 -0.193090 0.000000 0.000000 0.000000 0.831686 3.100987 2.407045 -0.037642 3.196113 2.928338 -0.104931 2.935778 2.318834 0.000000 0.000000 0.000000 1.973528 2.838991 3.192227 -0.767682 3.202178 -6.025033 0.357274 5.529086 0.134939 0.000000 0.000000 0.000000 -3.537182 0.717025 1.575748 -3.385222 0.192931 -1.694638 -3.441713 1.468633 -1.138268 0.000000 0.000000 0.000000 0.599477 2.074717 -1.899142 0.578519 -1.963382 1.100130 0.615234 0.282932 0.274275 0.000000 0.000000 0.000000 
